<svg width="21" height="19" viewBox="0 0 21 19" fill="none" xmlns="http://www.w3.org/2000/svg">
<path d="M8.73387 7.45574C8.73387 7.20947 8.90978 6.99838 9.15605 6.99838H11.0911C11.3373 6.99838 11.5132 7.20947 11.5132 7.45574L11.267 11.3961C11.267 11.6072 11.0559 11.7831 10.8448 11.7831H9.40232C9.15605 11.7831 8.98014 11.6424 8.98014 11.3961L8.73387 7.45574ZM11.6188 13.7533C11.6188 14.5977 10.9503 15.2309 10.1411 15.2309C9.29678 15.2309 8.6635 14.5977 8.6635 13.7533C8.6635 12.9441 9.29678 12.2757 10.1411 12.2757C10.9503 12.2757 11.6188 12.9441 11.6188 13.7533ZM11.5836 1.08782L20.0273 15.7587C20.6605 16.8845 19.8514 18.2566 18.5496 18.2566H1.69748C0.395754 18.2566 -0.41343 16.8493 0.219844 15.7587L8.6635 1.08782C9.29678 -0.0380044 10.9503 -0.00282246 11.5836 1.08782ZM1.87339 16.2864C1.76785 16.4271 1.87339 16.5679 2.0493 16.5679H18.1978C18.3737 16.5679 18.4793 16.4271 18.3737 16.2864L10.3171 2.284C10.2115 2.14327 10.0356 2.14327 9.93005 2.284L1.87339 16.2864Z" fill="#EA9806"/>
</svg>
